<?xml version="1.0" encoding="UTF-8"?>
<svg id="Layer_1" data-name="Layer 1" xmlns="http://www.w3.org/2000/svg" viewBox="0 0 512 508.1">
  <defs>
    <style>
      .cls-1 {
        fill: #827717;
      }

      .cls-2 {
        fill: #fff9c4;
      }

      .cls-3 {
        fill: #fff176;
        isolation: isolate;
      }
    </style>
  </defs>
  <polygon class="cls-2" points="50 121.05 256 45.05 448 121.05 256 204.05 50 121.05"/>
  <path class="cls-1" d="m234.5,3.75c13.9-5,29.1-5,43.1,0l192,68.6c25.4,9.1,42.4,33.2,42.4,60.3v242.8c0,27-17,51.2-42.5,60.3l-192,68.6c-13.9,5-29.1,5-43.1,0l-192-68.6C17,426.65,0,402.55,0,375.45v-242.8c0-27,17-51.2,42.5-60.3,0,0,192-68.6,192-68.6Zm21.5,60.3l-173.7,62,173.7,62,173.7-62-173.7-62ZM64,375.45l160,57.1v-188l-160-57.1v188Zm224,57.1l160-57.1v-188l-160,57.2v188-.1Z"/>
  <path class="cls-3" d="m64,187.45v188l160,57.1v-188l-160-57.1Zm384,188v-188l-160,57.2v188l160-57.1v-.1Z"/>
</svg>